HIERARCHY
ROOT Hips
{
  OFFSET -33.9132 29.2015 117.021
  CHANNELS 6 Xposition Yposition Zposition Zrotation Xrotation Yrotation
  JOINT LeftUpLeg
  {
    OFFSET 8.64259 1.95398 -2.38835
    CHANNELS 3 Zrotation Xrotation Yrotation
    JOINT LeftLeg
    {
      OFFSET 43.7702 0 0
      CHANNELS 3 Zrotation Xrotation Yrotation
      JOINT LeftFoot
      {
        OFFSET 40.6238 0 0
        CHANNELS 3 Zrotation Xrotation Yrotation
        JOINT LeftToeBase
        {
          OFFSET 12.7242 0 0
          CHANNELS 3 Zrotation Xrotation Yrotation
          End Site
          {
            OFFSET 0 0 0
          }
        }
      }
    }
  }
  JOINT RightUpLeg
  {
    OFFSET -8.2249 1.95398 -2.59336
    CHANNELS 3 Zrotation Xrotation Yrotation
    JOINT RightLeg
    {
      OFFSET 43.5653 0 0
      CHANNELS 3 Zrotation Xrotation Yrotation
      JOINT RightFoot
      {
        OFFSET 40.6238 0 0
        CHANNELS 3 Zrotation Xrotation Yrotation
        JOINT RightToeBase
        {
          OFFSET 12.7242 0 0
          CHANNELS 3 Zrotation Xrotation Yrotation
          End Site
          {
            OFFSET 0 0 0
          }
        }
      }
    }
  }
  JOINT Spine
  {
    OFFSET 0.165834 0.87714 6.61349
    CHANNELS 3 Zrotation Xrotation Yrotation
    JOINT Spine1
    {
      OFFSET 7.38963 1.71661e-005 0
      CHANNELS 3 Zrotation Xrotation Yrotation
      JOINT Spine2
      {
        OFFSET 11.9445 1.14441e-005 0
        CHANNELS 3 Zrotation Xrotation Yrotation
        JOINT Spine3
        {
          OFFSET 14.7254 4.19617e-005 0
          CHANNELS 3 Zrotation Xrotation Yrotation
          JOINT Spine4
          {
            OFFSET 10.9679 0 0
            CHANNELS 3 Zrotation Xrotation Yrotation
            JOINT RightShoulder
            {
              OFFSET 2.46616 -1.6653 3.69651
              CHANNELS 3 Zrotation Xrotation Yrotation
              JOINT RightArm
              {
                OFFSET 13.0012 0 0
                CHANNELS 3 Zrotation Xrotation Yrotation
                JOINT RightForeArm
                {
                  OFFSET 28.7848 1.62311e-005 0
                  CHANNELS 3 Zrotation Xrotation Yrotation
                  JOINT RightHand
                  {
                    OFFSET 26.5688 1.62095e-005 0
                    CHANNELS 3 Zrotation Xrotation Yrotation
                    End Site
                    {
                      OFFSET 0 0 0
                    }
                  }
                }
              }
            }
            JOINT LeftShoulder
            {
              OFFSET 2.38034 -1.29275 -3.7523
              CHANNELS 3 Zrotation Xrotation Yrotation
              JOINT LeftArm
              {
                OFFSET 16.3182 6.07031e-005 0
                CHANNELS 3 Zrotation Xrotation Yrotation
                JOINT LeftForeArm
                {
                  OFFSET 27.0901 0 0
                  CHANNELS 3 Zrotation Xrotation Yrotation
                  JOINT LeftHand
                  {
                    OFFSET 24.5451 1.51738e-005 0
                    CHANNELS 3 Zrotation Xrotation Yrotation
                    End Site
                    {
                      OFFSET 0 0 0
                    }
                  }
                }
              }
            }
            JOINT Neck
            {
              OFFSET 5.0226 -0.0266342 0
              CHANNELS 3 Zrotation Xrotation Yrotation
              JOINT Head
              {
                OFFSET 6.69364 2.86102e-005 0
                CHANNELS 3 Zrotation Xrotation Yrotation
                End Site
                {
                  OFFSET 0 0 0
                }
              }
            }
          }
        }
      }
    }
  }
}
MOTION
Frames:	12
Frame Time:	0.0416667
38.0785 101.201 26.9671 -173.412 -81.3049 -174.917 -174.531 -6.4234 88.9961 -11.0933 6.59913 0.474357 70.4593 6.27938 -2.83125 14.5206 -11.5375 7.60342 171.257 -6.1939 86.2248 -11.3992 -3.43189 -0.209869 66.8896 -4.37018 1.34225 26.2273 0.374577 2.94625 0.161541 8.03531 -89.9132 10.8031 0.361791 0.139089 -0.867814 0.367566 0.123029 -23.4032 0.303267 0.241386 -3.39058 0.303259 0.241385 89.5 -28.0718 -108.536 52.0523 2.74226 -8.40986 -5.30741 -42.0895 -5.4547 -14.9561 1.39053 -16.3293 -89.2874 -46.9572 79.1572 -25.9341 -5.70199 -19.2841 -12.3696 31.6181 -0.0214395 5.13955 -0.236681 -12.4665 4.15407 -1.70593 -3.25859 -2.4032 -1.10232 1.45612 
37.9452 101.23 26.9555 -174.681 -81.7597 -175.731 -174.095 -5.60059 89.7259 -11.7065 7.26403 0.238881 70.6543 6.26798 -2.98548 15.0671 -11.7491 8.47024 171.863 -6.14324 87.0035 -10.7994 -3.33502 -0.314783 65.9225 -3.90513 0.830503 26.2554 0.174015 3.6481 0.145492 7.98123 -89.9589 10.9113 0.308733 0.0526036 -0.759577 0.310751 0.0389505 -23.295 0.27865 0.142954 -3.28232 0.278646 0.142946 89.4347 -28.2607 -108.589 52.3316 2.62331 -8.37226 -5.30224 -42.0461 -5.45128 -16.1551 1.41613 -15.6421 -89.325 -46.9908 79.1062 -25.0174 -4.27575 -19.0492 -13.0666 30.7895 -0.0212525 5.70353 -0.263401 -11.929 3.39416 -1.77414 -3.90046 -1.06844 -1.05099 2.53668 
37.9442 101.22 26.9315 -174.813 -82.1164 -176.213 -174.366 -5.40489 89.2743 -11.4556 7.20827 0.251959 70.5464 6.3193 -2.75327 15.1344 -11.7201 8.49129 171.698 -5.59715 86.6891 -11.0798 -3.45723 -0.266536 66.161 -3.93089 0.925308 26.0672 0.467639 2.85904 0.160891 7.93722 -89.9433 10.9993 0.346607 0.0797676 -0.671606 0.349783 0.0644274 -23.207 0.30661 0.180252 -3.1944 0.306606 0.180244 89.6219 -28.1683 -108.248 52.3147 2.6758 -8.24624 -5.31838 -42.2771 -5.46092 -16.2158 1.42471 -15.6691 -89.6277 -47.1191 78.6664 -24.9191 -4.14945 -19.1986 -13.2188 30.3216 -0.0211503 5.62841 -0.344268 -13.041 3.09487 -1.80709 -3.61261 -0.568368 -1.13631 2.17731 
37.9641 101.229 26.9168 -174.667 -82.1412 -176.066 -174.321 -5.37446 89.3001 -11.4216 7.21556 0.191753 70.4938 6.26418 -2.8948 15.1612 -11.7317 8.53607 171.705 -5.49076 86.674 -11.183 -3.52225 -0.281297 66.1806 -3.97884 0.693547 25.9256 0.370739 3.43689 0.181268 7.92718 -89.9777 11.0195 0.371242 0.00885978 -0.651386 0.371285 -0.00749645 -23.1869 0.351418 0.120022 -3.17429 0.351423 0.120025 89.8475 -27.8394 -107.925 52.1121 2.81117 -8.13326 -5.42367 -43.7723 -5.52454 -15.3862 1.43169 -16.3159 -89.9132 -47.6439 78.3432 -24.5994 -4.24608 -19.2776 -13.2466 30.2669 -0.0211385 6.13979 -0.379543 -12.7878 2.91076 -1.85187 -3.14845 -0.521424 -1.26749 1.91201 
37.965 101.226 26.9295 -175.004 -82.1106 -176.382 -174.321 -5.36122 89.2935 -11.5474 7.25194 0.204919 70.6168 6.38844 -2.64075 14.7774 -11.883 8.39627 171.671 -5.55815 86.6773 -11.1718 -3.54531 -0.244389 66.1445 -3.95996 0.753905 26.0743 0.35682 3.25518 0.175508 7.93141 -89.9756 11.0111 0.360737 0.0140541 -0.659836 0.361002 -0.00183725 -23.1954 0.339832 0.121825 -3.18271 0.339835 0.121824 89.8048 -27.8756 -107.997 52.0902 2.8154 -8.15042 -5.42635 -43.8099 -5.52629 -15.4842 1.4387 -16.2941 -89.8004 -47.5389 78.4934 -24.6057 -3.98237 -19.3244 -13.3262 30.3758 -0.021162 6.09328 -0.375955 -12.7891 3.03432 -1.81045 -3.19263 -0.65925 -1.2173 1.95889 
37.9508 101.223 26.9378 -175.23 -82.039 -176.571 -174.309 -5.38708 89.362 -11.6318 7.36603 0.236922 70.593 6.33043 -2.77897 15.0911 -11.6992 8.41523 171.67 -5.68435 86.7327 -11.0961 -3.68164 -0.21502 66.0965 -3.98889 0.557984 26.1126 0.475852 2.7561 0.185961 7.93079 -89.984 11.0036 0.377682 -0.00416635 -0.667265 0.377131 -0.0207877 -23.2028 0.361469 0.109533 -3.19018 0.361479 0.109543 89.8432 -27.8842 -107.916 51.9485 2.89212 -8.1215 -5.47184 -44.4324 -5.55457 -15.1818 1.44081 -16.5465 -89.9328 -47.6125 78.3062 -24.4911 -4.06229 -19.3759 -13.3501 29.9467 -0.0210701 5.42646 -0.327364 -13.0657 2.96114 -1.92756 -3.15831 -0.536614 -1.34091 1.82164 
37.968 101.218 26.9587 -175.104 -82.0633 -176.487 -174.339 -5.45104 89.2764 -11.4888 7.4151 0.223139 70.5785 6.42922 -2.45909 14.7995 -11.852 8.36927 171.684 -5.59458 86.6733 -11.2237 -3.5241 -0.273782 66.1552 -3.96192 0.7403 26.0114 0.416014 3.13506 0.189957 7.92926 -89.9726 11.016 0.390892 0.017111 -0.654924 0.391261 -0.000117863 -23.1905 0.367675 0.133799 -3.17786 0.367672 0.133792 89.8126 -28.0026 -107.929 51.9748 2.8883 -8.09708 -5.49138 -44.6988 -5.56685 -15.5975 1.46923 -16.4406 -89.9254 -47.4915 78.2905 -24.5821 -4.14657 -19.3957 -13.2692 30.3901 -0.0211651 5.15452 -0.287091 -13.0089 3.05562 -1.93125 -3.33622 -0.644804 -1.31241 1.91643 
37.9584 101.232 26.9866 -175.572 -81.9194 -176.865 -174.284 -5.56612 89.4042 -11.584 7.40958 0.262451 70.6035 6.35667 -2.69979 14.9734 -11.814 8.48037 171.663 -5.871 86.7464 -11.069 -3.71584 -0.225015 65.9694 -3.86457 0.689942 26.3324 0.375181 2.77526 0.179127 7.94194 -89.9805 10.99 0.365678 0.00390497 -0.680866 0.365502 -0.0121998 -23.2164 0.34759 0.113629 -3.20376 0.347603 0.11363 89.7098 -28.0088 -108.136 51.8586 2.94958 -8.07757 -5.51483 -45.0137 -5.5817 -15.3157 1.45498 -16.5477 -89.834 -47.541 78.4419 -24.36 -3.80627 -19.29 -13.439 29.768 -0.0210324 5.24072 -0.308914 -13.0132 3.06334 -1.87047 -3.36241 -0.461496 -1.24325 1.98246 
37.9657 101.221 27.0131 -176.082 -81.8552 -177.378 -174.237 -5.59405 89.43 -11.7022 7.48849 0.225378 70.7759 6.46514 -2.61217 14.6604 -11.8046 8.15861 171.706 -6.01825 86.7368 -10.8855 -3.17289 -0.289779 66.2559 -4.17317 0.449316 25.7192 0.275424 4.10775 0.184483 7.95443 -89.9856 10.965 0.373982 -0.00685272 -0.705857 0.373321 -0.0233156 -23.2414 0.358747 0.105867 -3.22878 0.358755 0.105861 89.8406 -28.0816 -107.84 51.9629 2.85032 -8.22182 -5.44919 -44.1247 -5.54047 -15.2259 1.46018 -16.6592 -89.9234 -47.4103 78.2753 -24.6579 -4.06555 -19.4169 -13.3261 30.0011 -0.0210816 5.66866 -0.333566 -12.804 3.23425 -1.96849 -3.49334 -0.6195 -1.31144 2.19388 
37.9494 101.23 27.0137 -176.147 -81.9378 -177.495 -174.217 -5.5438 89.4376 -11.6263 7.56596 0.169683 70.6045 6.35412 -2.76283 14.9834 -11.8317 8.51801 171.647 -5.81401 86.7044 -11.1969 -3.66418 -0.228606 66.0332 -3.86591 0.814492 26.321 0.475918 2.42233 0.177562 7.94235 -89.9785 10.9892 0.363505 0.00809403 -0.681662 0.363503 -0.0079241 -23.2172 0.344254 0.116965 -3.20456 0.344264 0.116969 89.7636 -28.1336 -107.975 51.7736 2.95386 -8.18004 -5.50534 -44.8861 -5.57564 -15.2869 1.48633 -16.8117 -89.883 -47.4347 78.343 -24.4756 -3.94268 -19.3054 -13.3768 30.1373 -0.0211107 5.42247 -0.286445 -12.5206 3.22554 -1.93547 -3.57343 -0.764878 -1.26738 2.27111 
37.9626 101.235 27.0174 -175.903 -81.825 -177.192 -174.225 -5.61745 89.4573 -11.698 7.42384 0.227929 70.6779 6.37457 -2.75744 14.7582 -11.8868 8.3836 171.65 -5.99672 86.7369 -11.0637 -3.69815 -0.227935 66.0423 -3.94462 0.629559 26.1948 0.45599 2.69846 0.185188 7.9542 -89.9863 10.9658 0.375083 -0.00836338 -0.70507 0.37435 -0.0248797 -23.2406 0.360254 0.104751 -3.228 0.360255 0.104746 89.7764 -28.0763 -107.972 51.8796 2.90344 -8.18181 -5.45109 -44.1558 -5.54176 -15.1118 1.44846 -16.6595 -89.8961 -47.4453 78.325 -24.4841 -3.95158 -19.3075 -13.4218 29.9643 -0.0210738 5.66527 -0.304135 -12.4255 3.15535 -1.88052 -3.54453 -0.719889 -1.22161 2.15396 
37.9685 101.222 27.0241 -176.157 -81.8454 -177.514 -174.26 -5.64423 89.3899 -11.6276 7.64489 0.215013 70.5928 6.38217 -2.60749 14.9184 -11.7231 8.2834 171.644 -5.95272 86.6607 -11.04 -3.41617 -0.270215 66.1409 -4.04201 0.33912 26.1182 0.094761 4.15221 0.186686 7.95125 -89.9837 10.9657 0.379248 -0.00356533 -0.705199 0.378722 -0.0202591 -23.2408 0.362778 0.110583 -3.22814 0.362779 0.110572 89.8348 -28.1265 -107.833 51.8585 2.91848 -8.16711 -5.47381 -44.4 -5.55304 -15.5155 1.4973 -16.7138 -89.8975 -47.6314 78.3646 -24.2409 -3.74344 -19.3214 -13.5285 29.8829 -0.0210566 5.38918 -0.299754 -12.7213 3.16816 -1.8598 -3.47865 -0.761479 -1.21303 2.12897 
